<svg version="1.1" id="Layer_1" xmlns="http://www.w3.org/2000/svg" xmlns:xlink="http://www.w3.org/1999/xlink" x="0px" y="0px"
	 viewBox="0 0 1035.3 288" style="enable-background:new 0 0 1035.3 288;" xml:space="preserve">
<path style="fill:#336699;" d="M144.3,0l144,144V45c0-24.9-20.1-45-45-45H144.3z"/>
<path style="fill:#99CCFF;" d="M288.3,144l-144,144V144H288.3z"/>
<path style="fill:#6699CC;" d="M0.3,0v119.9c0,15.5,6.1,30.3,17.1,41.2L144.3,288V144L0.3,0z"/>
<g>
	<path style="fill:#FFFFFF;" d="M439.7,230.6h-24.5L360.3,84.7h22l39.9,107.6c0.7,2,1.4,4.3,2,6.8s1.1,4.9,1.5,7.1c0.5,2.7,1.1,5.5,1.6,8.4
		c0.5-2.9,1.1-5.7,1.6-8.4c0.5-2.4,1.1-4.8,1.8-7.3c0.6-2.5,1.3-4.8,2-6.8l39.4-107.3h22.3L439.7,230.6z"/>
	<path style="fill:#FFFFFF;" d="M537.8,163.7c0.4,9.1,1.3,16.9,2.8,23.6s4,12.3,7.5,16.7s8,7.7,13.7,9.9s12.8,3.3,21.3,3.3
		c10.7,0,19.3-1.8,25.8-5.3s11.6-8.8,15.2-15.9l18.5,7.3c-4.9,10-11.9,17.7-21.1,23.2s-22,8.3-38.5,8.3c-23.4,0-40.5-6.2-51.5-18.5
		s-16.4-32-16.4-59c0-12.3,1.1-23.2,3.4-32.7c2.3-9.5,6.1-17.6,11.4-24.2s12.4-11.6,21.1-15.1c8.7-3.4,19.5-5.2,32.3-5.2
		c13.6,0,24.5,2.1,32.6,6.2s14.4,9.8,18.8,16.8c4.3,7.1,7.2,15.3,8.4,24.6c1.3,9.3,1.9,19.2,1.9,29.5v6.2L537.8,163.7L537.8,163.7z
		 M623.1,146.1c0-7.5-0.5-14.2-1.6-20.1s-3.1-10.9-6-15s-6.9-7.3-12.1-9.6s-11.8-3.4-20-3.4c-7.1,0-13.3,0.8-18.8,2.5
		c-5.4,1.6-10,4.3-13.9,8.1c-3.8,3.7-6.8,8.7-9,14.8s-3.5,13.7-4.1,22.8h85.5V146.1z"/>
	<path style="fill:#FFFFFF;" d="M801.8,157.5c0,12.1-1.2,23-3.5,32.6c-2.4,9.6-6.1,17.8-11.3,24.4c-5.2,6.7-11.9,11.8-20.2,15.2
		s-18.5,5.2-30.4,5.2s-22-1.7-30.3-5.2s-14.9-8.5-20.1-15.1c-5.2-6.6-8.9-14.7-11.3-24.3c-2.4-9.6-3.5-20.6-3.5-32.9
		s1.2-23.2,3.5-32.7s6.1-17.6,11.3-24.2s11.9-11.6,20.1-15.1c8.2-3.4,18.3-5.2,30.3-5.2s22.1,1.7,30.4,5.2s15.1,8.5,20.2,15.1
		s8.9,14.7,11.3,24.2C800.7,134.2,801.8,145.2,801.8,157.5z M780.1,157.5c0-10.9-0.8-20.1-2.5-27.7c-1.6-7.6-4.2-13.8-7.6-18.5
		c-3.5-4.7-8-8.1-13.5-10.2C751,99,744.2,98,736.2,98c-7.8,0-14.5,1-20.2,3.1s-10.2,5.5-13.6,10.2s-6,10.9-7.6,18.5
		c-1.6,7.6-2.5,16.9-2.5,27.7c0,10.9,0.8,20.1,2.3,27.7c1.5,7.6,4.1,13.8,7.6,18.6s8.1,8.2,13.6,10.3s12.3,3.1,20.3,3.1
		s14.8-1,20.3-3.1s10.1-5.5,13.6-10.3s6.1-11,7.6-18.6S780.1,168.3,780.1,157.5L780.1,157.5z"/>
	<path style="fill:#FFFFFF;" d="M949.6,206.9c-6.9,9.8-14.6,16.9-23.1,21.3c-8.5,4.4-18.8,6.7-30.7,6.7c-12.7,0-23.4-1.7-32.2-5.2
		s-15.8-8.5-21-15.1s-9-14.7-11.3-24.3s-3.5-20.5-3.5-32.6c0-12.5,1.2-23.6,3.5-33.3s6.1-17.8,11.3-24.3s12.2-11.4,21-14.8
		c8.8-3.3,19.5-5,32.2-5c13,0,23.6,2.3,31.7,6.8c8.1,4.5,15.2,11.2,21.3,20.1l-17.1,8.7c-1.8-2.3-3.5-4.5-5-6.4s-3.6-3.7-6.1-5.3
		c-2.7-2-6.1-3.5-10-4.6c-4-1.1-8.9-1.6-14.7-1.6c-7.8,0-14.6,0.9-20.5,2.7c-5.9,1.8-10.8,5-14.7,9.5s-6.8,10.6-8.7,18.3
		s-2.8,17.4-2.8,29.2c0,11.6,0.9,21.2,2.6,28.8s4.5,13.7,8.3,18.2s8.7,7.7,14.5,9.6c5.9,1.9,13,2.9,21.3,2.9c5.4,0,10-0.5,13.9-1.5
		c3.8-1,7.1-2.4,9.9-4.1c2.8-1.7,5.2-3.7,7.3-6s4.1-4.8,6.1-7.5L949.6,206.9z"/>
	<path style="fill:#FFFFFF;" d="M1022.7,233c-10.3,0-18.2-2.9-23.8-8.6c-5.5-5.7-8.3-14.5-8.3-26.5v-85.3c0-1.6,0.2-3.3,0.5-4.9
		s0.8-3.2,1.4-4.6H968V84.7h43.7V198c0,6.2,1,10.4,3,12.6c2,2.3,4.6,3.4,7.9,3.4h11.4v19H1022.7z M1011.9,42.8
		c0,1.5-0.6,2.2-1.9,2.2h-22c-0.9,0-1.5-0.1-1.6-0.4s-0.3-0.9-0.3-1.8V21.6c0-1.8,0.6-2.7,1.9-2.7h22c0.9,0,1.5,0.1,1.6,0.4
		s0.3,1,0.3,2.3V42.8z"/>
</g>
</svg>